# Blender v2.82 (sub 7) OBJ File: 'ship03.blend'
# www.blender.org
mtllib ship03.mtl
o Cube
v -0.700000 0.800000 -0.600000
v -0.700000 -0.700000 -0.500000
v -0.700000 0.900000 -0.900000
v -0.700000 -1.000000 -1.500000
v -0.100000 -1.400000 -1.500000
v -0.500000 0.600000 -0.600000
v -0.500000 -0.700000 -0.500000
v -0.500000 0.700000 -0.900000
v -0.600000 0.400000 0.500000
v -0.599999 0.000000 2.500000
v -1.000000 -0.500000 0.500000
v -0.600000 0.400000 -1.500000
v -1.700001 0.000000 -2.500000
v -1.700001 -0.500000 -2.199999
v -0.500000 0.500000 -1.500000
v -0.500000 0.000000 -1.800000
v -0.500000 -0.500000 -1.500000
v -0.500000 0.500000 0.500000
v -0.099999 0.000000 2.500000
v -0.500000 -0.500000 0.500000
v 0.700000 0.800000 -0.600000
v 0.700000 -0.700000 -0.500000
v 0.700000 0.900000 -0.900000
v 0.700000 -1.000000 -1.500000
v 0.000000 -0.700000 -0.500000
v -0.000000 0.700000 -0.900000
v -0.000000 -1.000000 -1.500000
v -0.000000 0.600000 -0.600000
v 0.100000 -1.400000 -1.500000
v 0.500000 0.600000 -0.600000
v 0.500000 -0.700000 -0.500000
v 0.500000 0.700000 -0.900000
v 0.600000 0.400000 0.500000
v 0.600001 0.000000 2.500000
v 1.000000 -0.500000 0.500000
v 0.600000 0.400000 -1.500000
v 1.699999 0.000000 -2.500000
v 1.699999 -0.500000 -2.200001
v 0.000000 0.500000 0.500000
v 0.000001 0.000000 2.500000
v 0.000000 -0.500000 0.500000
v -0.000000 0.500000 -1.500000
v -0.000000 0.000000 -1.800000
v -0.000000 -0.500000 -1.500000
v 0.500000 0.500000 -1.500000
v 0.500000 0.000000 -1.800000
v 0.500000 -0.500000 -1.500000
v 0.500000 0.500000 0.500000
v 0.100001 0.000000 2.500000
v 0.500000 -0.500000 0.500000
vt 0.312500 0.500000
vt 0.375000 0.500000
vt 0.375000 0.750000
vt 0.312500 0.750000
vt 0.562500 0.500000
vt 0.625000 0.500000
vt 0.625000 0.750000
vt 0.562500 0.750000
vt 0.562500 0.437500
vt 0.625000 0.437500
vt 0.562500 0.812500
vt 0.625000 0.812500
vt 0.625000 0.875000
vt 0.562500 0.875000
vt 0.687500 0.500000
vt 0.750000 0.500000
vt 0.750000 0.750000
vt 0.687500 0.750000
vt 0.562500 0.375000
vt 0.625000 0.375000
vt 0.250000 0.500000
vt 0.250000 0.750000
vt 0.375000 0.375000
vt 0.437500 0.375000
vt 0.437500 0.437500
vt 0.375000 0.437500
vt 0.500000 0.375000
vt 0.500000 0.437500
vt 0.437500 0.750000
vt 0.437500 0.812500
vt 0.375000 0.812500
vt 0.500000 0.750000
vt 0.500000 0.812500
vt 0.437500 0.875000
vt 0.375000 0.875000
vt 0.500000 0.875000
vt 0.437500 0.500000
vt 0.500000 0.500000
vt 0.312500 0.500000
vt 0.312500 0.750000
vt 0.375000 0.750000
vt 0.375000 0.500000
vt 0.562500 0.500000
vt 0.562500 0.750000
vt 0.625000 0.750000
vt 0.625000 0.500000
vt 0.562500 0.437500
vt 0.625000 0.437500
vt 0.562500 0.812500
vt 0.625000 0.812500
vt 0.687500 0.500000
vt 0.687500 0.750000
vt 0.375000 0.437500
vt 0.437500 0.437500
vt 0.500000 0.437500
vt 0.375000 0.812500
vt 0.437500 0.812500
vt 0.437500 0.750000
vt 0.500000 0.812500
vt 0.500000 0.750000
vt 0.437500 0.500000
vt 0.500000 0.500000
vn -0.4211 -0.8422 0.3369
vn -0.9750 -0.2220 -0.0097
vn 0.3100 0.9300 0.1973
vn -0.0000 0.9487 -0.3162
vn 0.0000 0.9487 0.3162
vn 0.6882 0.6882 0.2294
vn 0.2798 0.8393 -0.4663
vn 0.0000 0.9959 0.0905
vn 0.4907 -0.7361 0.4662
vn 0.0000 -0.9806 0.1961
vn 0.0000 -0.9701 0.2425
vn 0.0000 0.9701 0.2425
vn 0.3333 -0.1333 -0.9333
vn 0.4474 -0.4601 -0.7669
vn 0.3356 0.6175 -0.7114
vn -0.0000 0.0000 -1.0000
vn -0.0000 -0.5145 -0.8575
vn -0.0000 0.5145 -0.8575
vn -0.1599 0.9595 0.2319
vn -0.4404 -0.8843 0.1550
vn -0.9737 0.0025 0.2276
vn -0.5350 0.8407 0.0841
vn 0.4211 -0.8422 0.3369
vn 0.9750 -0.2220 -0.0097
vn -0.3100 0.9300 0.1973
vn -0.6882 0.6882 0.2294
vn -0.2798 0.8393 -0.4663
vn -0.4907 -0.7361 0.4662
vn -0.3333 -0.1333 -0.9333
vn -0.4474 -0.4601 -0.7669
vn -0.3356 0.6175 -0.7114
vn 0.1599 0.9595 0.2319
vn 0.4404 -0.8843 0.1550
vn 0.9737 0.0025 0.2276
vn 0.5350 0.8407 0.0841
usemtl Material
s off
f 7/1/1 2/2/1 4/3/1 5/4/1
f 9/5/2 1/6/2 3/7/2 12/8/2
f 18/9/3 6/10/3 1/6/3 9/5/3
f 15/11/4 8/12/4 26/13/4 42/14/4
f 6/15/5 28/16/5 26/17/5 8/18/5
f 1/6/6 6/15/6 8/18/6 3/7/6
f 12/8/7 3/7/7 8/12/7 15/11/7
f 39/19/8 28/20/8 6/10/8 18/9/8
f 25/21/9 7/1/9 5/4/9 27/22/9
f 25/23/10 41/24/10 20/25/10 7/26/10
f 41/24/11 40/27/11 19/28/11 20/25/11
f 40/27/12 39/19/12 18/9/12 19/28/12
f 4/3/13 14/29/13 17/30/13 5/31/13
f 14/29/14 13/32/14 16/33/14 17/30/14
f 13/32/15 12/8/15 15/11/15 16/33/15
f 5/31/16 17/30/16 44/34/16 27/35/16
f 17/30/17 16/33/17 43/36/17 44/34/17
f 16/33/18 15/11/18 42/14/18 43/36/18
f 7/26/10 20/25/10 11/37/10 2/2/10
f 20/25/11 19/28/11 10/38/11 11/37/11
f 19/28/19 18/9/19 9/5/19 10/38/19
f 2/2/20 11/37/20 14/29/20 4/3/20
f 11/37/21 10/38/21 13/32/21 14/29/21
f 10/38/22 9/5/22 12/8/22 13/32/22
f 31/39/23 29/40/23 24/41/23 22/42/23
f 33/43/24 36/44/24 23/45/24 21/46/24
f 48/47/25 33/43/25 21/46/25 30/48/25
f 45/49/4 42/14/4 26/13/4 32/50/4
f 30/51/5 32/52/5 26/17/5 28/16/5
f 21/46/26 23/45/26 32/52/26 30/51/26
f 36/44/27 45/49/27 32/50/27 23/45/27
f 39/19/8 48/47/8 30/48/8 28/20/8
f 25/21/28 27/22/28 29/40/28 31/39/28
f 25/23/10 31/53/10 50/54/10 41/24/10
f 41/24/11 50/54/11 49/55/11 40/27/11
f 40/27/12 49/55/12 48/47/12 39/19/12
f 24/41/29 29/56/29 47/57/29 38/58/29
f 38/58/30 47/57/30 46/59/30 37/60/30
f 37/60/31 46/59/31 45/49/31 36/44/31
f 29/56/16 27/35/16 44/34/16 47/57/16
f 47/57/17 44/34/17 43/36/17 46/59/17
f 46/59/18 43/36/18 42/14/18 45/49/18
f 31/53/10 22/42/10 35/61/10 50/54/10
f 50/54/11 35/61/11 34/62/11 49/55/11
f 49/55/32 34/62/32 33/43/32 48/47/32
f 22/42/33 24/41/33 38/58/33 35/61/33
f 35/61/34 38/58/34 37/60/34 34/62/34
f 34/62/35 37/60/35 36/44/35 33/43/35
