# Blender v2.82 (sub 7) OBJ File: 'missile03.blend'
# www.blender.org
mtllib missile03.mtl
o Cube
v -0.200000 0.050000 0.175000
v -0.200000 -0.050000 0.175000
v -0.200000 0.100000 -0.625000
v -0.200000 -0.100000 -0.625000
v 0.200000 0.050000 0.175000
v 0.200000 -0.050000 0.175000
v 0.200000 0.100000 -0.625000
v 0.200000 -0.100000 -0.625000
v 0.000000 -0.000000 0.625000
v -0.000000 0.200000 -0.375000
v -0.000000 -0.200000 -0.375000
v 0.000000 -0.000000 0.625000
vt 0.250000 0.500000
vt 0.375000 0.500000
vt 0.375000 0.750000
vt 0.250000 0.750000
vt 0.625000 0.500000
vt 0.625000 0.750000
vt 0.375000 0.375000
vt 0.625000 0.375000
vt 0.625000 0.875000
vt 0.375000 0.875000
vt 0.750000 0.500000
vt 0.750000 0.750000
vt 0.375000 0.750000
vt 0.375000 0.500000
vt 0.625000 0.750000
vt 0.625000 0.500000
vn -0.3425 -0.9306 0.1292
vn -1.0000 0.0000 0.0000
vn -0.9138 0.0000 0.4061
vn 0.7809 0.0000 -0.6247
vn -0.3425 0.9306 0.1292
vn 0.3425 -0.9306 0.1292
vn 1.0000 0.0000 -0.0000
vn 0.9138 0.0000 0.4061
vn -0.7809 0.0000 -0.6247
vn 0.3425 0.9306 0.1292
usemtl Material
s off
f 9/1/1 2/2/1 4/3/1 11/4/1
f 2/2/2 1/5/2 3/6/2 4/3/2
f 9/7/3 12/8/3 1/5/3 2/2/3
f 4/3/4 3/6/4 10/9/4 11/10/4
f 1/5/5 12/11/5 10/12/5 3/6/5
f 9/1/6 11/4/6 8/13/6 6/14/6
f 6/14/7 8/13/7 7/15/7 5/16/7
f 9/7/8 6/14/8 5/16/8 12/8/8
f 8/13/9 11/10/9 10/9/9 7/15/9
f 5/16/10 7/15/10 10/12/10 12/11/10
